# xmcd CD database file
#
# Track frame offsets:
#	150
#	9717
#	18864
#	27576
#	36854
#	50031
#	59579
#	66626
#	80664
#	92108
#	110006
#	121058
#
# Disc length: 1751 seconds
#
# Revision: 0
# Processed by: cddbd v1.5.2PL0 Copyright (c) Steve Scherf et al.
# Submitted via: CDex 1.70beta2
#
DISCID=aa06d50c
DTITLE=Pintandwefall - Wow! What was that, baby?
DYEAR=2007
DGENRE=Garage
TTITLE0=Rocket Chicks
TTITLE1=Angela Brown
TTITLE2=Somewhere I'd Be Worshipped
TTITLE3=Agentina
TTITLE4=What is Shark
TTITLE5=Disko
TTITLE6=Shoot the Amber, Baby!
TTITLE7=Alienlovesong
TTITLE8=Jack White
TTITLE9=John the Seahorse
TTITLE10=That X-Box
TTITLE11=Sex song
EXTD=YEAR: 2007
EXTT0=
EXTT1=
EXTT2=
EXTT3=
EXTT4=
EXTT5=
EXTT6=
EXTT7=
EXTT8=
EXTT9=
EXTT10=
EXTT11=
PLAYORDER=
